# xmcd
#
# Track frame offsets: 
#        150
#        29975
#        50729
#        69810
#        90115
#        103378
#        119444
#        144057
#        163105
#        180115
#        201123
#        224044
#        239909
#        252011
#        286131
#        312019
#        332732
#
# Disc length: 4680 seconds
#
# Revision: 2
# Processed by: cddbd v1.5.2PL0 Copyright (c) Steve Scherf et al.
# Submitted via: ExactAudioCopy v1.0b1
#
DISCID=f8124611
DTITLE=Various Artist - Masterpiece Mixed by François K
DYEAR=2008
DGENRE=Electronic
TTITLE0=Toby Tobias - Dave's Sexy Bits (Quiet Village Remix)
TTITLE1=The Orb - Little Fuffy Clouds (Cumulo Nimbus Remix)
TTITLE2=François K - Road Of Life
TTITLE3=Pete Shelley - Witness The Change
TTITLE4=Deee-Lite - What Is Love (Holographic Goatee Mix)
TTITLE5=Orange Wafer - Lo Tek
TTITLE6=Partial Arts - Cruising
TTITLE7=Henrik Schwarz - Digital World
TTITLE8=Virgo - In A Vision
TTITLE9=Art of Tones - Praise
TTITLE10=Akabu - Phuture Bound (Ame Remix)
TTITLE11=Dennis Ferrer feat Mia Tuttavilla - Touched The Sky (Joe's Du
TTITLE11=b Beats)
TTITLE12=The Mountain People - Mountain003
TTITLE13=Jephte Guillaume - Papa Loko  (You Can't Steal Papa Loko's Th
TTITLE13=under Mix)
TTITLE14=Reel Houze - The Chance
TTITLE15=Dogma and The Afro-Cuban Rhythms - Ma Suave
TTITLE16=Konono No. 1 - Ungundi Wele Wele
EXTD=YEAR: 2008
EXTT0=
EXTT1=
EXTT2=
EXTT3=
EXTT4=
EXTT5=
EXTT6=
EXTT7=
EXTT8=
EXTT9=
EXTT10=
EXTT11=
EXTT12=
EXTT13=
EXTT14=
EXTT15=
EXTT16=
PLAYORDER=
